<svg xmlns="http://www.w3.org/2000/svg" viewBox="0 0 32 32" fill="none">
  <defs>
    <linearGradient id="hap-pudding-grad" x1="2" y1="4" x2="30" y2="28" gradientUnits="userSpaceOnUse">
      <stop stop-color="#AA5CC3"/>
      <stop offset="1" stop-color="#00A4DC"/>
    </linearGradient>
  </defs>
  <g stroke="url(#hap-pudding-grad)" stroke-width="1.25" stroke-linecap="round" stroke-linejoin="round">
    <path d="M25.68 8.9C25.68 9.02 25.47 9.14 25.34 9.25C25.21 9.36 24.97 9.46 24.89 9.57C24.81 9.68 24.9 9.8 24.87 9.92C24.84 10.04 24.88 10.18 24.72 10.29C24.57 10.39 24.22 10.47 23.96 10.55C23.69 10.63 23.35 10.68 23.13 10.77C22.91 10.87 22.83 10.99 22.65 11.09C22.46 11.2 22.31 11.32 22.04 11.4C21.76 11.47 21.35 11.49 21 11.52C20.65 11.56 20.27 11.56 19.96 11.61C19.64 11.66 19.4 11.76 19.1 11.83C18.8 11.89 18.5 11.99 18.15 12.01C17.81 12.04 17.41 12 17.05 11.98C16.69 11.96 16.35 11.91 16 11.91C15.65 11.91 15.31 11.96 14.95 11.98C14.59 12 14.19 12.04 13.85 12.01C13.5 11.99 13.2 11.89 12.9 11.83C12.6 11.76 12.36 11.66 12.04 11.61C11.73 11.56 11.35 11.56 11 11.52C10.65 11.49 10.24 11.47 9.96 11.4C9.69 11.32 9.54 11.2 9.35 11.09C9.17 10.99 9.09 10.87 8.87 10.77C8.65 10.68 8.31 10.63 8.04 10.55C7.78 10.47 7.43 10.39 7.28 10.29C7.12 10.18 7.16 10.04 7.13 9.92C7.1 9.8 7.19 9.68 7.11 9.57C7.03 9.46 6.79 9.36 6.66 9.25C6.53 9.14 6.32 9.02 6.32 8.9C6.32 8.78 6.53 8.66 6.66 8.55C6.79 8.44 7.03 8.34 7.11 8.23C7.19 8.12 7.1 8 7.13 7.88C7.16 7.76 7.12 7.62 7.28 7.51C7.43 7.41 7.78 7.33 8.04 7.25C8.31 7.17 8.65 7.12 8.87 7.03C9.09 6.93 9.17 6.81 9.35 6.71C9.54 6.6 9.69 6.48 9.96 6.4C10.24 6.33 10.65 6.31 11 6.28C11.35 6.24 11.73 6.24 12.04 6.19C12.36 6.14 12.6 6.04 12.9 5.97C13.2 5.91 13.5 5.81 13.85 5.79C14.19 5.76 14.59 5.8 14.95 5.82C15.31 5.84 15.65 5.89 16 5.89C16.35 5.89 16.69 5.84 17.05 5.82C17.41 5.8 17.81 5.76 18.15 5.79C18.5 5.81 18.8 5.91 19.1 5.97C19.4 6.04 19.64 6.14 19.96 6.19C20.27 6.24 20.65 6.24 21 6.28C21.35 6.31 21.76 6.33 22.04 6.4C22.31 6.48 22.46 6.6 22.65 6.71C22.83 6.81 22.91 6.93 23.13 7.03C23.35 7.12 23.69 7.17 23.96 7.25C24.22 7.33 24.57 7.41 24.72 7.51C24.88 7.62 24.84 7.76 24.87 7.88C24.9 8 24.81 8.12 24.89 8.23C24.97 8.34 25.21 8.44 25.34 8.55C25.47 8.66 25.68 8.78 25.68 8.9Z"/>
    <path d="M25.68 8.9C28.66 10.69 29.93 14.78 30.06 19.4C30.09 20.77 30.33 21.15 30.35 21.9M6.32 8.9C3.34 10.69 2.07 14.78 1.94 19.4C1.91 20.77 1.67 21.15 1.65 21.9"/>
    <path d="M30.35 21.9C30.21 21.98 29.82 22.22 29.51 22.37C29.21 22.52 28.64 22.63 28.53 22.78C28.42 22.94 28.77 23.11 28.84 23.29C28.9 23.46 29.15 23.68 28.93 23.82C28.71 23.96 28 24.04 27.52 24.13C27.04 24.23 26.36 24.25 26.05 24.37C25.73 24.5 25.8 24.7 25.62 24.87C25.43 25.03 25.34 25.27 24.95 25.36C24.55 25.46 23.8 25.44 23.24 25.46C22.67 25.47 22.03 25.41 21.58 25.48C21.12 25.54 20.89 25.74 20.49 25.86C20.09 25.99 19.69 26.19 19.19 26.22C18.7 26.25 18.05 26.13 17.52 26.07C16.99 26.02 16.51 25.87 16 25.87C15.49 25.87 15.01 26.02 14.48 26.07C13.95 26.13 13.3 26.25 12.81 26.22C12.31 26.19 11.91 25.99 11.51 25.86C11.11 25.74 10.88 25.54 10.42 25.48C9.97 25.41 9.33 25.47 8.76 25.46C8.2 25.44 7.45 25.46 7.05 25.36C6.66 25.27 6.57 25.03 6.38 24.87C6.2 24.7 6.27 24.5 5.95 24.37C5.64 24.25 4.96 24.23 4.48 24.13C4 24.04 3.29 23.96 3.07 23.82C2.85 23.68 3.1 23.46 3.16 23.29C3.23 23.11 3.58 22.94 3.47 22.78C3.36 22.63 2.79 22.52 2.49 22.37C2.18 22.22 1.79 21.98 1.65 21.9"/>
    <path d="M30.06 19.4C29.85 19.48 29.25 19.72 28.82 19.86C28.38 20 27.55 20.09 27.44 20.24C27.34 20.39 27.97 20.58 28.18 20.77C28.38 20.96 28.88 21.22 28.67 21.36C28.46 21.5 27.5 21.54 26.92 21.61C26.34 21.67 25.48 21.63 25.18 21.75C24.88 21.88 25.19 22.14 25.12 22.33C25.05 22.53 25.14 22.84 24.77 22.94C24.39 23.03 23.48 22.94 22.86 22.91C22.25 22.89 21.53 22.74 21.09 22.8C20.66 22.87 20.59 23.15 20.26 23.32C19.93 23.49 19.6 23.78 19.13 23.81C18.66 23.84 17.97 23.63 17.44 23.52C16.92 23.42 16.48 23.18 16 23.18C15.52 23.18 15.08 23.42 14.56 23.52C14.03 23.63 13.34 23.84 12.87 23.81C12.4 23.78 12.07 23.49 11.74 23.32C11.41 23.15 11.34 22.87 10.91 22.8C10.47 22.74 9.75 22.89 9.14 22.91C8.52 22.94 7.61 23.03 7.23 22.94C6.86 22.84 6.95 22.53 6.88 22.33C6.81 22.14 7.12 21.88 6.82 21.75C6.52 21.63 5.66 21.67 5.08 21.61C4.5 21.54 3.54 21.5 3.33 21.36C3.12 21.22 3.62 20.96 3.82 20.77C4.03 20.58 4.66 20.39 4.56 20.24C4.45 20.09 3.62 20 3.18 19.86C2.75 19.72 2.15 19.48 1.94 19.4" stroke-linecap="butt"/>
    <path d="M11.55 8.9A4.45 1.48 0 0 1 20.45 8.9A4.45 1.48 0 0 1 11.55 8.9Z"/>
    <g stroke-width="1.05" opacity=".92">
      <path d="M24.89 9.57C26.63 11.38 27.37 15.55 27.44 20.24"/>
      <path d="M23.13 10.77C24.52 12.64 25.12 16.92 25.18 21.75"/>
      <path d="M19.96 11.61C20.73 13.51 21.06 17.88 21.09 22.8"/>
      <path d="M16 11.91C16 13.82 16 18.22 16 23.18"/>
      <path d="M12.04 11.61C11.27 13.51 10.94 17.88 10.91 22.8"/>
      <path d="M8.87 10.77C7.48 12.64 6.88 16.92 6.82 21.75"/>
      <path d="M7.11 9.57C5.37 11.38 4.63 15.55 4.56 20.24"/>
    </g>
  </g>
</svg>
